<svg width="1440" height="4179" viewBox="0 0 1440 4179" fill="none" xmlns="http://www.w3.org/2000/svg">
<g clip-path="url(#clip0_73_280)">
<rect width="1440" height="4179" fill="#240046"/>
<path d="M60.5489 377H41L50.7745 389.669L60.5489 377Z" fill="#D2D2D2"/>
<path d="M60.5489 393.332H41L50.7745 406.001L60.5489 393.332Z" fill="#D2D2D2"/>
<path d="M60.5489 409.666H41L50.7745 422.335L60.5489 409.666Z" fill="#D2D2D2"/>
<path d="M60.5489 425.998H41L50.7745 438.667L60.5489 425.998Z" fill="#D2D2D2"/>
<path d="M60.5489 442.331H41L50.7745 455L60.5489 442.331Z" fill="#D2D2D2"/>
<path d="M1425.55 907.915H1413L1419.27 895.749L1425.55 907.915Z" fill="white"/>
<path d="M1425.55 892.23H1413L1419.27 880.064L1425.55 892.23Z" fill="white"/>
<path d="M1425.55 876.545H1413L1419.27 864.378L1425.55 876.545Z" fill="white"/>
<path d="M1425.55 860.86H1413L1419.27 848.684L1425.55 860.86Z" fill="white"/>
<path d="M1425.55 845.166H1413L1419.27 833L1425.55 845.166Z" fill="white"/>
<path d="M595.317 891H573V912.637H595.317V891Z" stroke="#5D3C7D" stroke-width="1.22" stroke-miterlimit="10"/>
<path d="M1360.81 510L1317 528.509L1335.58 572.49L1379.39 553.981L1360.81 510Z" stroke="#5D3C7D" stroke-width="1.22" stroke-miterlimit="10"/>
<path d="M653.399 470.09L635.323 457L622.632 474.525L640.708 487.614L653.399 470.09Z" stroke="#5D3C7D" stroke-width="1.22" stroke-miterlimit="10"/>
<path d="M1162.99 749.083H1140.67V770.72H1162.99V749.083Z" stroke="#D2D2D2" stroke-width="1.22" stroke-miterlimit="10"/>
<path d="M139.072 152L120 163.589L131.236 182.08L150.308 170.491L139.072 152Z" stroke="#D2D2D2" stroke-width="1.22" stroke-miterlimit="10"/>
<path d="M1364.42 168.97L1343.56 161.033L1335.86 181.255L1356.72 189.192L1364.42 168.97Z" stroke="#D2D2D2" stroke-width="1.22" stroke-miterlimit="10"/>
<path d="M385.941 605.738C386.809 605.738 387.512 605.056 387.512 604.215C387.512 603.374 386.809 602.692 385.941 602.692C385.073 602.692 384.37 603.374 384.37 604.215C384.37 605.056 385.073 605.738 385.941 605.738Z" fill="#5A189A"/>
<path d="M387.503 619.672C387.503 620.513 386.799 621.195 385.932 621.195C385.066 621.195 384.361 620.513 384.361 619.672C384.361 618.832 385.066 618.149 385.932 618.149C386.799 618.149 387.503 618.832 387.503 619.672Z" fill="#5A189A"/>
<path d="M385.941 636.653C386.809 636.653 387.512 635.971 387.512 635.13C387.512 634.289 386.809 633.607 385.941 633.607C385.073 633.607 384.37 634.289 384.37 635.13C384.37 635.971 385.073 636.653 385.941 636.653Z" fill="#5A189A"/>
<path d="M387.503 650.596C387.503 651.437 386.799 652.119 385.932 652.119C385.066 652.119 384.361 651.437 384.361 650.596C384.361 649.756 385.066 649.073 385.932 649.073C386.799 649.073 387.503 649.756 387.503 650.596Z" fill="#5A189A"/>
<path d="M702.229 573.886C702.229 574.726 701.524 575.409 700.658 575.409C699.791 575.409 699.087 574.726 699.087 573.886C699.087 573.046 699.791 572.363 700.658 572.363C701.524 572.363 702.229 573.046 702.229 573.886Z" fill="#5A189A"/>
<path d="M702.229 590.753C702.229 591.593 701.524 592.276 700.658 592.276C699.791 592.276 699.087 591.593 699.087 590.753C699.087 589.913 699.791 589.23 700.658 589.23C701.524 589.23 702.229 589.913 702.229 590.753Z" fill="#5A189A"/>
<path d="M702.229 607.629C702.229 608.469 701.524 609.152 700.658 609.152C699.791 609.152 699.087 608.469 699.087 607.629C699.087 606.788 699.791 606.106 700.658 606.106C701.524 606.106 702.229 606.788 702.229 607.629Z" fill="#5A189A"/>
<path d="M702.229 624.495C702.229 625.336 701.524 626.018 700.658 626.018C699.791 626.018 699.087 625.336 699.087 624.495C699.087 623.655 699.791 622.972 700.658 622.972C701.524 622.972 702.229 623.655 702.229 624.495Z" fill="#5A189A"/>
<path d="M715.617 591.199C715.617 592.039 714.913 592.722 714.046 592.722C713.18 592.722 712.475 592.039 712.475 591.199C712.475 590.359 713.18 589.676 714.046 589.676C714.913 589.676 715.617 590.359 715.617 591.199Z" fill="#5A189A"/>
<path d="M714.055 608.18C714.923 608.18 715.626 607.498 715.626 606.657C715.626 605.816 714.923 605.134 714.055 605.134C713.188 605.134 712.484 605.816 712.484 606.657C712.484 607.498 713.188 608.18 714.055 608.18Z" fill="#5A189A"/>
<path d="M715.617 622.115C715.617 622.955 714.913 623.638 714.046 623.638C713.18 623.638 712.475 622.955 712.475 622.115C712.475 621.274 713.18 620.592 714.046 620.592C714.913 620.592 715.617 621.274 715.617 622.115Z" fill="#5A189A"/>
<path d="M714.055 639.104C714.923 639.104 715.626 638.422 715.626 637.581C715.626 636.74 714.923 636.058 714.055 636.058C713.188 636.058 712.484 636.74 712.484 637.581C712.484 638.422 713.188 639.104 714.055 639.104Z" fill="#5A189A"/>
<path d="M477.422 155.498C478.263 155.498 478.945 156.202 478.945 157.069C478.945 157.936 478.263 158.64 477.422 158.64C476.582 158.64 475.899 157.936 475.899 157.069C475.899 156.202 476.582 155.498 477.422 155.498Z" fill="#5A189A"/>
<path d="M494.289 155.498C495.129 155.498 495.812 156.202 495.812 157.069C495.812 157.936 495.129 158.64 494.289 158.64C493.449 158.64 492.766 157.936 492.766 157.069C492.766 156.202 493.449 155.498 494.289 155.498Z" fill="#5A189A"/>
<path d="M511.165 155.498C512.005 155.498 512.688 156.202 512.688 157.069C512.688 157.936 512.005 158.64 511.165 158.64C510.325 158.64 509.642 157.936 509.642 157.069C509.642 156.202 510.325 155.498 511.165 155.498Z" fill="#5A189A"/>
<path d="M528.032 155.498C528.872 155.498 529.555 156.202 529.555 157.069C529.555 157.936 528.872 158.64 528.032 158.64C527.192 158.64 526.509 157.936 526.509 157.069C526.509 156.202 527.192 155.498 528.032 155.498Z" fill="#5A189A"/>
<path d="M494.735 142.11C495.576 142.11 496.258 142.814 496.258 143.681C496.258 144.547 495.576 145.251 494.735 145.251C493.895 145.251 493.212 144.547 493.212 143.681C493.212 142.814 493.895 142.11 494.735 142.11Z" fill="#5A189A"/>
<path d="M511.716 143.672C511.716 142.804 511.034 142.101 510.193 142.101C509.352 142.101 508.67 142.804 508.67 143.672C508.67 144.539 509.352 145.242 510.193 145.242C511.034 145.242 511.716 144.539 511.716 143.672Z" fill="#5A189A"/>
<path d="M525.651 142.11C526.491 142.11 527.174 142.814 527.174 143.681C527.174 144.547 526.491 145.251 525.651 145.251C524.811 145.251 524.128 144.547 524.128 143.681C524.128 142.814 524.811 142.11 525.651 142.11Z" fill="#5A189A"/>
<path d="M542.64 143.672C542.64 142.804 541.958 142.101 541.117 142.101C540.276 142.101 539.594 142.804 539.594 143.672C539.594 144.539 540.276 145.242 541.117 145.242C541.958 145.242 542.64 144.539 542.64 143.672Z" fill="#5A189A"/>
<path d="M1194.14 116.523C1194.14 117.363 1193.44 118.046 1192.57 118.046C1191.7 118.046 1191 117.363 1191 116.523C1191 115.683 1191.7 115 1192.57 115C1193.44 115 1194.14 115.683 1194.14 116.523Z" fill="#5A189A"/>
<path d="M1194.14 133.39C1194.14 134.23 1193.44 134.913 1192.57 134.913C1191.7 134.913 1191 134.23 1191 133.39C1191 132.55 1191.7 131.867 1192.57 131.867C1193.44 131.867 1194.14 132.55 1194.14 133.39Z" fill="#5A189A"/>
<path d="M1194.14 150.265C1194.14 151.106 1193.44 151.788 1192.57 151.788C1191.7 151.788 1191 151.106 1191 150.265C1191 149.425 1191.7 148.742 1192.57 148.742C1193.44 148.742 1194.14 149.425 1194.14 150.265Z" fill="#5A189A"/>
<path d="M1194.14 167.132C1194.14 167.972 1193.44 168.655 1192.57 168.655C1191.7 168.655 1191 167.972 1191 167.132C1191 166.292 1191.7 165.609 1192.57 165.609C1193.44 165.609 1194.14 166.292 1194.14 167.132Z" fill="#5A189A"/>
<path d="M1207.53 133.836C1207.53 134.676 1206.83 135.359 1205.96 135.359C1205.09 135.359 1204.39 134.676 1204.39 133.836C1204.39 132.996 1205.09 132.313 1205.96 132.313C1206.83 132.313 1207.53 132.996 1207.53 133.836Z" fill="#5A189A"/>
<path d="M1205.97 150.817C1206.84 150.817 1207.54 150.135 1207.54 149.294C1207.54 148.453 1206.84 147.771 1205.97 147.771C1205.1 147.771 1204.4 148.453 1204.4 149.294C1204.4 150.135 1205.1 150.817 1205.97 150.817Z" fill="#5A189A"/>
<path d="M1207.53 164.751C1207.53 165.592 1206.83 166.274 1205.96 166.274C1205.09 166.274 1204.39 165.592 1204.39 164.751C1204.39 163.911 1205.09 163.228 1205.96 163.228C1206.83 163.228 1207.53 163.911 1207.53 164.751Z" fill="#5A189A"/>
<path d="M1205.97 181.741C1206.84 181.741 1207.54 181.059 1207.54 180.218C1207.54 179.377 1206.84 178.695 1205.97 178.695C1205.1 178.695 1204.4 179.377 1204.4 180.218C1204.4 181.059 1205.1 181.741 1205.97 181.741Z" fill="#5A189A"/>
<path d="M88.1417 206.523C88.1417 207.363 87.4376 208.046 86.5709 208.046C85.7042 208.046 85 207.363 85 206.523C85 205.683 85.7042 205 86.5709 205C87.4376 205 88.1417 205.683 88.1417 206.523Z" fill="#5A189A"/>
<path d="M88.1417 223.39C88.1417 224.23 87.4376 224.913 86.5709 224.913C85.7042 224.913 85 224.23 85 223.39C85 222.55 85.7042 221.867 86.5709 221.867C87.4376 221.867 88.1417 222.55 88.1417 223.39Z" fill="#5A189A"/>
<path d="M88.1417 240.266C88.1417 241.106 87.4376 241.789 86.5709 241.789C85.7042 241.789 85 241.106 85 240.266C85 239.425 85.7042 238.743 86.5709 238.743C87.4376 238.743 88.1417 239.425 88.1417 240.266Z" fill="#5A189A"/>
<path d="M88.1417 257.132C88.1417 257.973 87.4376 258.655 86.5709 258.655C85.7042 258.655 85 257.973 85 257.132C85 256.292 85.7042 255.609 86.5709 255.609C87.4376 255.609 88.1417 256.292 88.1417 257.132Z" fill="#5A189A"/>
<path d="M101.53 223.836C101.53 224.676 100.826 225.359 99.9595 225.359C99.0928 225.359 98.3887 224.676 98.3887 223.836C98.3887 222.996 99.0928 222.313 99.9595 222.313C100.826 222.313 101.53 222.996 101.53 223.836Z" fill="#5A189A"/>
<path d="M99.9683 240.817C100.836 240.817 101.539 240.135 101.539 239.294C101.539 238.453 100.836 237.771 99.9683 237.771C99.1008 237.771 98.3975 238.453 98.3975 239.294C98.3975 240.135 99.1008 240.817 99.9683 240.817Z" fill="#5A189A"/>
<path d="M101.53 254.752C101.53 255.592 100.826 256.275 99.9595 256.275C99.0928 256.275 98.3887 255.592 98.3887 254.752C98.3887 253.911 99.0928 253.229 99.9595 253.229C100.826 253.229 101.53 253.911 101.53 254.752Z" fill="#5A189A"/>
<path d="M99.9683 271.741C100.836 271.741 101.539 271.059 101.539 270.218C101.539 269.377 100.836 268.695 99.9683 268.695C99.1008 268.695 98.3975 269.377 98.3975 270.218C98.3975 271.059 99.1008 271.741 99.9683 271.741Z" fill="#5A189A"/>
<path d="M695.478 741.224L715.491 769.18" stroke="#D2D2D2" stroke-width="0.73" stroke-miterlimit="10"/>
<path d="M699.222 738.544L719.235 766.5" stroke="#D2D2D2" stroke-width="0.73" stroke-miterlimit="10"/>
<path d="M819.246 636.133C821.28 627.852 816.004 619.541 807.462 617.569C798.92 615.598 790.347 620.713 788.314 628.994C786.281 637.276 791.557 645.587 800.098 647.559C808.64 649.53 817.213 644.415 819.246 636.133Z" stroke="#5A189A" stroke-width="4.89" stroke-miterlimit="10"/>
<path d="M277.725 1217.7C283.934 1211.68 283.934 1201.92 277.725 1195.9C271.517 1189.88 261.45 1189.88 255.242 1195.9C249.033 1201.92 249.033 1211.68 255.242 1217.7C261.45 1223.72 271.517 1223.72 277.725 1217.7Z" stroke="#5A189A" stroke-width="4.89" stroke-miterlimit="10"/>
<path d="M387.735 757.485C389.768 749.204 384.492 740.892 375.951 738.921C367.409 736.95 358.836 742.065 356.803 750.346C354.769 758.628 360.046 766.939 368.587 768.911C377.129 770.882 385.702 765.767 387.735 757.485Z" stroke="#5A189A" stroke-width="4.89" stroke-miterlimit="10"/>
<path d="M1366 2774V2624L1426.5 2566.5V2274.5" stroke="white" stroke-width="2"/>
<path d="M119.898 470.828C128.679 470.828 135.797 463.927 135.797 455.414C135.797 446.901 128.679 440 119.898 440C111.118 440 104 446.901 104 455.414C104 463.927 111.118 470.828 119.898 470.828Z" stroke="#5A189A" stroke-width="4.89" stroke-miterlimit="10"/>
<path d="M79.5489 1515.91H67L73.2745 1503.74L79.5489 1515.91Z" fill="#D2D2D2"/>
<path d="M79.5489 1500.22H67L73.2745 1488.06L79.5489 1500.22Z" fill="#D2D2D2"/>
<path d="M79.5489 1484.54H67L73.2745 1472.37L79.5489 1484.54Z" fill="#D2D2D2"/>
<path d="M79.5489 1468.85H67L73.2745 1456.69L79.5489 1468.85Z" fill="#D2D2D2"/>
<path d="M79.5489 1453.17H67L73.2745 1441L79.5489 1453.17Z" fill="#D2D2D2"/>
<path d="M1370 1593H1382.55L1376.27 1605.17L1370 1593Z" fill="#D2D2D2"/>
<path d="M1370 1608.69H1382.55L1376.27 1620.85L1370 1608.69Z" fill="#D2D2D2"/>
<path d="M1370 1624.37H1382.55L1376.27 1636.54L1370 1624.37Z" fill="#D2D2D2"/>
<path d="M1370 1640.06H1382.55L1376.27 1652.23L1370 1640.06Z" fill="#D2D2D2"/>
<path d="M1370 1655.75H1382.55L1376.27 1667.92L1370 1655.75Z" fill="#D2D2D2"/>
<path d="M214.317 831H192V852.637H214.317V831Z" stroke="#5D3C7D" stroke-width="1.22" stroke-miterlimit="10"/>
<path d="M631.399 1296.09L613.323 1283L600.632 1300.52L618.708 1313.61L631.399 1296.09Z" stroke="#5D3C7D" stroke-width="1.22" stroke-miterlimit="10"/>
<path d="M275.554 1690L256 1700.76L266.429 1719.71L285.983 1708.96L275.554 1690Z" stroke="#D2D2D2" stroke-width="1.22" stroke-miterlimit="10"/>
<path d="M627.705 1025L608.633 1036.59L619.869 1055.08L638.941 1043.49L627.705 1025Z" stroke="#D2D2D2" stroke-width="1.22" stroke-miterlimit="10"/>
<path d="M78.3172 1081.6H56V1103.24H78.3172V1081.6Z" stroke="#D2D2D2" stroke-width="1.22" stroke-miterlimit="10"/>
<path d="M1316.9 921.724L1312.67 899.811L1291.42 903.913L1295.65 925.826L1316.9 921.724Z" stroke="#D2D2D2" stroke-width="1.22" stroke-miterlimit="10"/>
<path d="M363.941 1431.74C364.809 1431.74 365.512 1431.06 365.512 1430.22C365.512 1429.37 364.809 1428.69 363.941 1428.69C363.074 1428.69 362.371 1429.37 362.371 1430.22C362.371 1431.06 363.074 1431.74 363.941 1431.74Z" fill="#5A189A"/>
<path d="M365.504 1445.67C365.504 1446.51 364.799 1447.2 363.933 1447.2C363.066 1447.2 362.362 1446.51 362.362 1445.67C362.362 1444.83 363.066 1444.15 363.933 1444.15C364.799 1444.15 365.504 1444.83 365.504 1445.67Z" fill="#5A189A"/>
<path d="M363.941 1462.65C364.809 1462.65 365.512 1461.97 365.512 1461.13C365.512 1460.29 364.809 1459.61 363.941 1459.61C363.074 1459.61 362.371 1460.29 362.371 1461.13C362.371 1461.97 363.074 1462.65 363.941 1462.65Z" fill="#5A189A"/>
<path d="M365.504 1476.6C365.504 1477.44 364.799 1478.12 363.933 1478.12C363.066 1478.12 362.362 1477.44 362.362 1476.6C362.362 1475.76 363.066 1475.07 363.933 1475.07C364.799 1475.07 365.504 1475.76 365.504 1476.6Z" fill="#5A189A"/>
<path d="M680.229 1399.89C680.229 1400.73 679.524 1401.41 678.658 1401.41C677.791 1401.41 677.087 1400.73 677.087 1399.89C677.087 1399.05 677.791 1398.36 678.658 1398.36C679.524 1398.36 680.229 1399.05 680.229 1399.89Z" fill="#5A189A"/>
<path d="M680.229 1416.75C680.229 1417.59 679.524 1418.28 678.658 1418.28C677.791 1418.28 677.087 1417.59 677.087 1416.75C677.087 1415.91 677.791 1415.23 678.658 1415.23C679.524 1415.23 680.229 1415.91 680.229 1416.75Z" fill="#5A189A"/>
<path d="M680.229 1433.63C680.229 1434.47 679.524 1435.15 678.658 1435.15C677.791 1435.15 677.087 1434.47 677.087 1433.63C677.087 1432.79 677.791 1432.11 678.658 1432.11C679.524 1432.11 680.229 1432.79 680.229 1433.63Z" fill="#5A189A"/>
<path d="M680.229 1450.5C680.229 1451.34 679.524 1452.02 678.658 1452.02C677.791 1452.02 677.087 1451.34 677.087 1450.5C677.087 1449.66 677.791 1448.97 678.658 1448.97C679.524 1448.97 680.229 1449.66 680.229 1450.5Z" fill="#5A189A"/>
<path d="M693.617 1417.2C693.617 1418.04 692.913 1418.72 692.046 1418.72C691.18 1418.72 690.475 1418.04 690.475 1417.2C690.475 1416.36 691.18 1415.68 692.046 1415.68C692.913 1415.68 693.617 1416.36 693.617 1417.2Z" fill="#5A189A"/>
<path d="M692.055 1434.18C692.923 1434.18 693.626 1433.5 693.626 1432.66C693.626 1431.82 692.923 1431.13 692.055 1431.13C691.188 1431.13 690.484 1431.82 690.484 1432.66C690.484 1433.5 691.188 1434.18 692.055 1434.18Z" fill="#5A189A"/>
<path d="M693.617 1448.11C693.617 1448.96 692.913 1449.64 692.046 1449.64C691.18 1449.64 690.475 1448.96 690.475 1448.11C690.475 1447.27 691.18 1446.59 692.046 1446.59C692.913 1446.59 693.617 1447.27 693.617 1448.11Z" fill="#5A189A"/>
<path d="M692.055 1465.1C692.923 1465.1 693.626 1464.42 693.626 1463.58C693.626 1462.74 692.923 1462.06 692.055 1462.06C691.188 1462.06 690.484 1462.74 690.484 1463.58C690.484 1464.42 691.188 1465.1 692.055 1465.1Z" fill="#5A189A"/>
<path d="M748.422 1040.1C749.263 1040.1 749.945 1040.8 749.945 1041.67C749.945 1042.54 749.263 1043.24 748.422 1043.24C747.582 1043.24 746.899 1042.54 746.899 1041.67C746.899 1040.8 747.582 1040.1 748.422 1040.1Z" fill="#5A189A"/>
<path d="M765.289 1040.1C766.129 1040.1 766.812 1040.8 766.812 1041.67C766.812 1042.54 766.129 1043.24 765.289 1043.24C764.449 1043.24 763.766 1042.54 763.766 1041.67C763.766 1040.8 764.449 1040.1 765.289 1040.1Z" fill="#5A189A"/>
<path d="M782.165 1040.1C783.005 1040.1 783.688 1040.8 783.688 1041.67C783.688 1042.54 783.005 1043.24 782.165 1043.24C781.325 1043.24 780.642 1042.54 780.642 1041.67C780.642 1040.8 781.325 1040.1 782.165 1040.1Z" fill="#5A189A"/>
<path d="M799.032 1040.1C799.872 1040.1 800.555 1040.8 800.555 1041.67C800.555 1042.54 799.872 1043.24 799.032 1043.24C798.191 1043.24 797.509 1042.54 797.509 1041.67C797.509 1040.8 798.191 1040.1 799.032 1040.1Z" fill="#5A189A"/>
<path d="M765.735 1026.71C766.576 1026.71 767.258 1027.41 767.258 1028.28C767.258 1029.15 766.576 1029.85 765.735 1029.85C764.895 1029.85 764.212 1029.15 764.212 1028.28C764.212 1027.41 764.895 1026.71 765.735 1026.71Z" fill="#5A189A"/>
<path d="M782.716 1028.27C782.716 1027.4 782.034 1026.7 781.193 1026.7C780.352 1026.7 779.67 1027.4 779.67 1028.27C779.67 1029.14 780.352 1029.84 781.193 1029.84C782.034 1029.84 782.716 1029.14 782.716 1028.27Z" fill="#5A189A"/>
<path d="M796.651 1026.71C797.491 1026.71 798.174 1027.41 798.174 1028.28C798.174 1029.15 797.491 1029.85 796.651 1029.85C795.811 1029.85 795.128 1029.15 795.128 1028.28C795.128 1027.41 795.811 1026.71 796.651 1026.71Z" fill="#5A189A"/>
<path d="M813.64 1028.27C813.64 1027.4 812.958 1026.7 812.117 1026.7C811.276 1026.7 810.594 1027.4 810.594 1028.27C810.594 1029.14 811.276 1029.84 812.117 1029.84C812.958 1029.84 813.64 1029.14 813.64 1028.27Z" fill="#5A189A"/>
<path d="M672.754 1591.78L700.651 1571.68" stroke="#D2D2D2" stroke-width="0.73" stroke-miterlimit="10"/>
<path d="M670.062 1588.04L697.959 1567.95" stroke="#D2D2D2" stroke-width="0.73" stroke-miterlimit="10"/>
<path d="M797.246 1462.13C799.28 1453.85 794.004 1445.54 785.462 1443.57C776.92 1441.6 768.347 1446.71 766.314 1454.99C764.281 1463.28 769.557 1471.59 778.098 1473.56C786.64 1475.53 795.213 1470.42 797.246 1462.13Z" stroke="#5A189A" stroke-width="4.89" stroke-miterlimit="10"/>
<path d="M1276.36 1173.7C1282.57 1167.68 1282.57 1157.92 1276.36 1151.9C1270.15 1145.88 1260.08 1145.88 1253.87 1151.9C1247.67 1157.92 1247.67 1167.68 1253.87 1173.7C1260.08 1179.72 1270.15 1179.72 1276.36 1173.7Z" stroke="#5A189A" stroke-width="4.89" stroke-miterlimit="10"/>
<path d="M1179.61 1614.13C1181.65 1605.85 1176.37 1597.54 1167.83 1595.57C1159.29 1593.6 1150.72 1598.71 1148.68 1606.99C1146.65 1615.28 1151.92 1623.59 1160.47 1625.56C1169.01 1627.53 1177.58 1622.42 1179.61 1614.13Z" stroke="#5A189A" stroke-width="4.89" stroke-miterlimit="10"/>
<path d="M38.614 2618.13C40.6473 2609.85 35.3712 2601.54 26.8295 2599.57C18.2878 2597.6 9.71505 2602.71 7.6817 2610.99C5.64835 2619.28 10.9244 2627.59 19.4661 2629.56C28.0078 2631.53 36.5806 2626.42 38.614 2618.13Z" stroke="#5A189A" stroke-width="4.89" stroke-miterlimit="10"/>
<path d="M911.898 930.828C920.679 930.828 927.797 923.927 927.797 915.414C927.797 906.901 920.679 900 911.898 900C903.118 900 896 906.901 896 915.414C896 923.927 903.118 930.828 911.898 930.828Z" stroke="#5A189A" stroke-width="4.89" stroke-miterlimit="10"/>
<path d="M735.898 129.828C744.679 129.828 751.797 122.927 751.797 114.414C751.797 105.901 744.679 99 735.898 99C727.118 99 720 105.901 720 114.414C720 122.927 727.118 129.828 735.898 129.828Z" stroke="#5A189A" stroke-width="4.89" stroke-miterlimit="10"/>
<path d="M1301.55 2336.92H1289L1295.27 2324.75L1301.55 2336.92Z" fill="#D2D2D2"/>
<path d="M1301.55 2321.23H1289L1295.27 2309.06L1301.55 2321.23Z" fill="#D2D2D2"/>
<path d="M1301.55 2305.55H1289L1295.27 2293.38L1301.55 2305.55Z" fill="#D2D2D2"/>
<path d="M1301.55 2289.86H1289L1295.27 2277.68L1301.55 2289.86Z" fill="#D2D2D2"/>
<path d="M1301.55 2274.17H1289L1295.27 2262L1301.55 2274.17Z" fill="#D2D2D2"/>
<path d="M423.766 2213.09L405.691 2200L393 2217.52L411.075 2230.61L423.766 2213.09Z" stroke="#5D3C7D" stroke-width="1.22" stroke-miterlimit="10"/>
<path d="M1164.99 2412.08H1142.67V2433.72H1164.99V2412.08Z" stroke="#D2D2D2" stroke-width="1.22" stroke-miterlimit="10"/>
<path d="M651.705 1862L632.633 1873.59L643.869 1892.08L662.941 1880.49L651.705 1862Z" stroke="#D2D2D2" stroke-width="1.22" stroke-miterlimit="10"/>
<path d="M1246.64 1943.16L1226.06 1934.52L1217.68 1954.47L1238.26 1963.11L1246.64 1943.16Z" stroke="#D2D2D2" stroke-width="1.22" stroke-miterlimit="10"/>
<path d="M387.941 2268.74C388.809 2268.74 389.512 2268.06 389.512 2267.22C389.512 2266.37 388.809 2265.69 387.941 2265.69C387.074 2265.69 386.371 2266.37 386.371 2267.22C386.371 2268.06 387.074 2268.74 387.941 2268.74Z" fill="#5A189A"/>
<path d="M389.504 2282.67C389.504 2283.51 388.799 2284.2 387.933 2284.2C387.066 2284.2 386.362 2283.51 386.362 2282.67C386.362 2281.83 387.066 2281.15 387.933 2281.15C388.799 2281.15 389.504 2281.83 389.504 2282.67Z" fill="#5A189A"/>
<path d="M387.941 2299.65C388.809 2299.65 389.512 2298.97 389.512 2298.13C389.512 2297.29 388.809 2296.61 387.941 2296.61C387.074 2296.61 386.371 2297.29 386.371 2298.13C386.371 2298.97 387.074 2299.65 387.941 2299.65Z" fill="#5A189A"/>
<path d="M389.504 2313.6C389.504 2314.44 388.799 2315.12 387.933 2315.12C387.066 2315.12 386.362 2314.44 386.362 2313.6C386.362 2312.76 387.066 2312.07 387.933 2312.07C388.799 2312.07 389.504 2312.76 389.504 2313.6Z" fill="#5A189A"/>
<path d="M704.229 2236.89C704.229 2237.73 703.524 2238.41 702.658 2238.41C701.791 2238.41 701.087 2237.73 701.087 2236.89C701.087 2236.05 701.791 2235.36 702.658 2235.36C703.524 2235.36 704.229 2236.05 704.229 2236.89Z" fill="#5A189A"/>
<path d="M704.229 2253.75C704.229 2254.59 703.524 2255.28 702.658 2255.28C701.791 2255.28 701.087 2254.59 701.087 2253.75C701.087 2252.91 701.791 2252.23 702.658 2252.23C703.524 2252.23 704.229 2252.91 704.229 2253.75Z" fill="#5A189A"/>
<path d="M704.229 2270.63C704.229 2271.47 703.524 2272.15 702.658 2272.15C701.791 2272.15 701.087 2271.47 701.087 2270.63C701.087 2269.79 701.791 2269.11 702.658 2269.11C703.524 2269.11 704.229 2269.79 704.229 2270.63Z" fill="#5A189A"/>
<path d="M704.229 2287.5C704.229 2288.34 703.524 2289.02 702.658 2289.02C701.791 2289.02 701.087 2288.34 701.087 2287.5C701.087 2286.66 701.791 2285.97 702.658 2285.97C703.524 2285.97 704.229 2286.66 704.229 2287.5Z" fill="#5A189A"/>
<path d="M717.617 2254.2C717.617 2255.04 716.913 2255.72 716.046 2255.72C715.18 2255.72 714.475 2255.04 714.475 2254.2C714.475 2253.36 715.18 2252.68 716.046 2252.68C716.913 2252.68 717.617 2253.36 717.617 2254.2Z" fill="#5A189A"/>
<path d="M716.055 2271.18C716.923 2271.18 717.626 2270.5 717.626 2269.66C717.626 2268.82 716.923 2268.13 716.055 2268.13C715.188 2268.13 714.484 2268.82 714.484 2269.66C714.484 2270.5 715.188 2271.18 716.055 2271.18Z" fill="#5A189A"/>
<path d="M717.617 2285.11C717.617 2285.96 716.913 2286.64 716.046 2286.64C715.18 2286.64 714.475 2285.96 714.475 2285.11C714.475 2284.27 715.18 2283.59 716.046 2283.59C716.913 2283.59 717.617 2284.27 717.617 2285.11Z" fill="#5A189A"/>
<path d="M716.055 2302.1C716.923 2302.1 717.626 2301.42 717.626 2300.58C717.626 2299.74 716.923 2299.06 716.055 2299.06C715.188 2299.06 714.484 2299.74 714.484 2300.58C714.484 2301.42 715.188 2302.1 716.055 2302.1Z" fill="#5A189A"/>
<path d="M929.523 1875.4C930.363 1875.4 931.046 1876.1 931.046 1876.97C931.046 1877.84 930.363 1878.54 929.523 1878.54C928.683 1878.54 928 1877.84 928 1876.97C928 1876.1 928.683 1875.4 929.523 1875.4Z" fill="#5A189A"/>
<path d="M946.39 1875.4C947.23 1875.4 947.913 1876.1 947.913 1876.97C947.913 1877.84 947.23 1878.54 946.39 1878.54C945.549 1878.54 944.867 1877.84 944.867 1876.97C944.867 1876.1 945.549 1875.4 946.39 1875.4Z" fill="#5A189A"/>
<path d="M963.265 1875.4C964.106 1875.4 964.788 1876.1 964.788 1876.97C964.788 1877.84 964.106 1878.54 963.265 1878.54C962.425 1878.54 961.742 1877.84 961.742 1876.97C961.742 1876.1 962.425 1875.4 963.265 1875.4Z" fill="#5A189A"/>
<path d="M980.132 1875.4C980.972 1875.4 981.655 1876.1 981.655 1876.97C981.655 1877.84 980.972 1878.54 980.132 1878.54C979.292 1878.54 978.609 1877.84 978.609 1876.97C978.609 1876.1 979.292 1875.4 980.132 1875.4Z" fill="#5A189A"/>
<path d="M946.836 1862.01C947.676 1862.01 948.359 1862.71 948.359 1863.58C948.359 1864.45 947.676 1865.15 946.836 1865.15C945.996 1865.15 945.313 1864.45 945.313 1863.58C945.313 1862.71 945.996 1862.01 946.836 1862.01Z" fill="#5A189A"/>
<path d="M963.817 1863.57C963.817 1862.7 963.135 1862 962.294 1862C961.453 1862 960.771 1862.7 960.771 1863.57C960.771 1864.44 961.453 1865.14 962.294 1865.14C963.135 1865.14 963.817 1864.44 963.817 1863.57Z" fill="#5A189A"/>
<path d="M977.752 1862.01C978.592 1862.01 979.275 1862.71 979.275 1863.58C979.275 1864.45 978.592 1865.15 977.752 1865.15C976.911 1865.15 976.229 1864.45 976.229 1863.58C976.229 1862.71 976.911 1862.01 977.752 1862.01Z" fill="#5A189A"/>
<path d="M994.741 1863.57C994.741 1862.7 994.059 1862 993.218 1862C992.376 1862 991.695 1862.7 991.695 1863.57C991.695 1864.44 992.376 1865.14 993.218 1865.14C994.059 1865.14 994.741 1864.44 994.741 1863.57Z" fill="#5A189A"/>
<path d="M107 1731V1765.38" stroke="#D2D2D2" stroke-width="0.73" stroke-miterlimit="10"/>
<path d="M97 1731V1765.38" stroke="#D2D2D2" stroke-width="0.73" stroke-miterlimit="10"/>
<path d="M821.246 2299.13C823.28 2290.85 818.004 2282.54 809.462 2280.57C800.92 2278.6 792.347 2283.71 790.314 2291.99C788.281 2300.28 793.557 2308.59 802.098 2310.56C810.64 2312.53 819.213 2307.42 821.246 2299.13Z" stroke="#5A189A" stroke-width="4.89" stroke-miterlimit="10"/>
<path d="M1372.73 2095.7C1378.93 2089.68 1378.93 2079.92 1372.73 2073.9C1366.52 2067.88 1356.45 2067.88 1350.24 2073.9C1344.03 2079.92 1344.03 2089.68 1350.24 2095.7C1356.45 2101.72 1366.52 2101.72 1372.73 2095.7Z" stroke="#5A189A" stroke-width="4.89" stroke-miterlimit="10"/>
<path d="M907.406 2463.32C912.022 2456.08 909.71 2446.58 902.241 2442.1C894.772 2437.63 884.975 2439.87 880.359 2447.11C875.742 2454.35 878.055 2463.85 885.524 2468.33C892.992 2472.8 902.789 2470.56 907.406 2463.32Z" stroke="#5A189A" stroke-width="4.89" stroke-miterlimit="10"/>
<path d="M389.735 2420.49C391.768 2412.2 386.492 2403.89 377.951 2401.92C369.409 2399.95 360.836 2405.07 358.803 2413.35C356.769 2421.63 362.046 2429.94 370.587 2431.91C379.129 2433.88 387.702 2428.77 389.735 2420.49Z" stroke="#5A189A" stroke-width="4.89" stroke-miterlimit="10"/>
<path d="M554.898 1720.83C563.679 1720.83 570.797 1713.93 570.797 1705.41C570.797 1696.9 563.679 1690 554.898 1690C546.118 1690 539 1696.9 539 1705.41C539 1713.93 546.118 1720.83 554.898 1720.83Z" stroke="#5A189A" stroke-width="4.89" stroke-miterlimit="10"/>
<path d="M1269.55 3204.92H1257L1263.27 3192.75L1269.55 3204.92Z" fill="#D2D2D2"/>
<path d="M1269.55 3189.23H1257L1263.27 3177.06L1269.55 3189.23Z" fill="#D2D2D2"/>
<path d="M1269.55 3173.55H1257L1263.27 3161.38L1269.55 3173.55Z" fill="#D2D2D2"/>
<path d="M1269.55 3157.86H1257L1263.27 3145.69L1269.55 3157.86Z" fill="#D2D2D2"/>
<path d="M1269.55 3142.17H1257L1263.27 3130L1269.55 3142.17Z" fill="#D2D2D2"/>
<path d="M206.317 2536H184V2557.64H206.317V2536Z" stroke="#5D3C7D" stroke-width="1.22" stroke-miterlimit="10"/>
<path d="M391.766 3081.09L373.691 3068L361 3085.52L379.075 3098.61L391.766 3081.09Z" stroke="#5D3C7D" stroke-width="1.22" stroke-miterlimit="10"/>
<path d="M795.61 2995.18L774.295 3001.79L780.707 3022.46L802.022 3015.84L795.61 2995.18Z" stroke="#D2D2D2" stroke-width="1.22" stroke-miterlimit="10"/>
<path d="M619.704 2730L600.632 2741.59L611.869 2760.08L630.941 2748.49L619.704 2730Z" stroke="#D2D2D2" stroke-width="1.22" stroke-miterlimit="10"/>
<path d="M108.63 2822.3L94.1587 2805.31L77.687 2819.34L92.1583 2836.33L108.63 2822.3Z" stroke="#D2D2D2" stroke-width="1.22" stroke-miterlimit="10"/>
<path d="M62.1946 3270.49L45.9312 3286.75L62.1946 3303.01L78.4581 3286.75L62.1946 3270.49Z" stroke="#D2D2D2" stroke-width="1.22" stroke-miterlimit="10"/>
<path d="M1307.32 2607H1285V2628.64H1307.32V2607Z" stroke="#D2D2D2" stroke-width="1.22" stroke-miterlimit="10"/>
<path d="M253.58 2987.05C254.447 2987.05 255.151 2986.36 255.151 2985.52C255.151 2984.68 254.447 2984 253.58 2984C252.712 2984 252.009 2984.68 252.009 2985.52C252.009 2986.36 252.712 2987.05 253.58 2987.05Z" fill="#5A189A"/>
<path d="M255.142 3000.98C255.142 3001.82 254.438 3002.5 253.571 3002.5C252.704 3002.5 252 3001.82 252 3000.98C252 3000.14 252.704 2999.46 253.571 2999.46C254.438 2999.46 255.142 3000.14 255.142 3000.98Z" fill="#5A189A"/>
<path d="M253.58 3017.96C254.447 3017.96 255.151 3017.28 255.151 3016.44C255.151 3015.6 254.447 3014.92 253.58 3014.92C252.712 3014.92 252.009 3015.6 252.009 3016.44C252.009 3017.28 252.712 3017.96 253.58 3017.96Z" fill="#5A189A"/>
<path d="M255.142 3031.9C255.142 3032.74 254.438 3033.43 253.571 3033.43C252.704 3033.43 252 3032.74 252 3031.9C252 3031.06 252.704 3030.38 253.571 3030.38C254.438 3030.38 255.142 3031.06 255.142 3031.9Z" fill="#5A189A"/>
<path d="M924.141 3002.52C924.141 3003.36 923.437 3004.05 922.57 3004.05C921.704 3004.05 921 3003.36 921 3002.52C921 3001.68 921.704 3001 922.57 3001C923.437 3001 924.141 3001.68 924.141 3002.52Z" fill="#5A189A"/>
<path d="M924.141 3019.39C924.141 3020.23 923.437 3020.91 922.57 3020.91C921.704 3020.91 921 3020.23 921 3019.39C921 3018.55 921.704 3017.87 922.57 3017.87C923.437 3017.87 924.141 3018.55 924.141 3019.39Z" fill="#5A189A"/>
<path d="M924.141 3036.27C924.141 3037.11 923.437 3037.79 922.57 3037.79C921.704 3037.79 921 3037.11 921 3036.27C921 3035.43 921.704 3034.74 922.57 3034.74C923.437 3034.74 924.141 3035.43 924.141 3036.27Z" fill="#5A189A"/>
<path d="M924.141 3053.13C924.141 3053.97 923.437 3054.66 922.57 3054.66C921.704 3054.66 921 3053.97 921 3053.13C921 3052.29 921.704 3051.61 922.57 3051.61C923.437 3051.61 924.141 3052.29 924.141 3053.13Z" fill="#5A189A"/>
<path d="M937.53 3019.84C937.53 3020.68 936.825 3021.36 935.959 3021.36C935.092 3021.36 934.388 3020.68 934.388 3019.84C934.388 3019 935.092 3018.31 935.959 3018.31C936.825 3018.31 937.53 3019 937.53 3019.84Z" fill="#5A189A"/>
<path d="M935.968 3036.82C936.835 3036.82 937.539 3036.13 937.539 3035.29C937.539 3034.45 936.835 3033.77 935.968 3033.77C935.1 3033.77 934.397 3034.45 934.397 3035.29C934.397 3036.13 935.1 3036.82 935.968 3036.82Z" fill="#5A189A"/>
<path d="M937.53 3050.75C937.53 3051.59 936.825 3052.27 935.959 3052.27C935.092 3052.27 934.388 3051.59 934.388 3050.75C934.388 3049.91 935.092 3049.23 935.959 3049.23C936.825 3049.23 937.53 3049.91 937.53 3050.75Z" fill="#5A189A"/>
<path d="M935.968 3067.74C936.835 3067.74 937.539 3067.06 937.539 3066.22C937.539 3065.38 936.835 3064.69 935.968 3064.69C935.1 3064.69 934.397 3065.38 934.397 3066.22C934.397 3067.06 935.1 3067.74 935.968 3067.74Z" fill="#5A189A"/>
<path d="M767.141 2708.12C767.141 2708.96 766.437 2709.65 765.57 2709.65C764.704 2709.65 764 2708.96 764 2708.12C764 2707.28 764.704 2706.6 765.57 2706.6C766.437 2706.6 767.141 2707.28 767.141 2708.12Z" fill="#5A189A"/>
<path d="M767.141 2724.99C767.141 2725.83 766.437 2726.51 765.57 2726.51C764.704 2726.51 764 2725.83 764 2724.99C764 2724.15 764.704 2723.47 765.57 2723.47C766.437 2723.47 767.141 2724.15 767.141 2724.99Z" fill="#5A189A"/>
<path d="M767.141 2741.87C767.141 2742.71 766.437 2743.39 765.57 2743.39C764.704 2743.39 764 2742.71 764 2741.87C764 2741.03 764.704 2740.34 765.57 2740.34C766.437 2740.34 767.141 2741.03 767.141 2741.87Z" fill="#5A189A"/>
<path d="M767.141 2758.73C767.141 2759.57 766.437 2760.26 765.57 2760.26C764.704 2760.26 764 2759.57 764 2758.73C764 2757.89 764.704 2757.21 765.57 2757.21C766.437 2757.21 767.141 2757.89 767.141 2758.73Z" fill="#5A189A"/>
<path d="M780.53 2725.44C780.53 2726.28 779.825 2726.96 778.959 2726.96C778.092 2726.96 777.388 2726.28 777.388 2725.44C777.388 2724.6 778.092 2723.91 778.959 2723.91C779.825 2723.91 780.53 2724.6 780.53 2725.44Z" fill="#5A189A"/>
<path d="M778.968 2742.42C779.835 2742.42 780.539 2741.74 780.539 2740.89C780.539 2740.05 779.835 2739.37 778.968 2739.37C778.1 2739.37 777.397 2740.05 777.397 2740.89C777.397 2741.74 778.1 2742.42 778.968 2742.42Z" fill="#5A189A"/>
<path d="M780.53 2756.35C780.53 2757.19 779.825 2757.87 778.959 2757.87C778.092 2757.87 777.388 2757.19 777.388 2756.35C777.388 2755.51 778.092 2754.83 778.959 2754.83C779.825 2754.83 780.53 2755.51 780.53 2756.35Z" fill="#5A189A"/>
<path d="M778.968 2773.34C779.835 2773.34 780.539 2772.66 780.539 2771.82C780.539 2770.98 779.835 2770.3 778.968 2770.3C778.1 2770.3 777.397 2770.98 777.397 2771.82C777.397 2772.66 778.1 2773.34 778.968 2773.34Z" fill="#5A189A"/>
<path d="M1220.19 2513.63L1241.63 2540.51" stroke="#D2D2D2" stroke-width="0.73" stroke-miterlimit="10"/>
<path d="M1212.37 2519.87L1233.81 2546.75" stroke="#D2D2D2" stroke-width="0.73" stroke-miterlimit="10"/>
<path d="M159.798 2697.66L126.591 2706.57" stroke="#D2D2D2" stroke-width="0.73" stroke-miterlimit="10"/>
<path d="M157.207 2688L124 2696.91" stroke="#D2D2D2" stroke-width="0.73" stroke-miterlimit="10"/>
<path d="M584 2929V2963.38" stroke="#D2D2D2" stroke-width="0.73" stroke-miterlimit="10"/>
<path d="M588.604 2929V2963.38" stroke="#D2D2D2" stroke-width="0.73" stroke-miterlimit="10"/>
<path d="M789.246 3167.13C791.279 3158.85 786.003 3150.54 777.462 3148.57C768.92 3146.6 760.347 3151.71 758.314 3159.99C756.28 3168.28 761.556 3176.59 770.098 3178.56C778.64 3180.53 787.213 3175.42 789.246 3167.13Z" stroke="#5A189A" stroke-width="4.89" stroke-miterlimit="10"/>
<path d="M1144.73 3118.7C1150.93 3112.68 1150.93 3102.92 1144.73 3096.9C1138.52 3090.88 1128.45 3090.88 1122.24 3096.9C1116.03 3102.92 1116.03 3112.68 1122.24 3118.7C1128.45 3124.72 1138.52 3124.72 1144.73 3118.7Z" stroke="#5A189A" stroke-width="4.89" stroke-miterlimit="10"/>
<path d="M955.405 2923.32C960.022 2916.08 957.71 2906.58 950.241 2902.1C942.772 2897.63 932.975 2899.87 928.358 2907.11C923.742 2914.35 926.054 2923.85 933.523 2928.33C940.992 2932.8 950.789 2930.56 955.405 2923.32Z" stroke="#5A189A" stroke-width="4.89" stroke-miterlimit="10"/>
<path d="M447.614 2932.13C449.647 2923.85 444.371 2915.54 435.83 2913.57C427.288 2911.6 418.715 2916.71 416.682 2924.99C414.648 2933.28 419.924 2941.59 428.466 2943.56C437.008 2945.53 445.581 2940.42 447.614 2932.13Z" stroke="#5A189A" stroke-width="4.89" stroke-miterlimit="10"/>
<path d="M522.898 2588.83C531.679 2588.83 538.797 2581.93 538.797 2573.41C538.797 2564.9 531.679 2558 522.898 2558C514.118 2558 507 2564.9 507 2573.41C507 2581.93 514.118 2588.83 522.898 2588.83Z" stroke="#5A189A" stroke-width="4.89" stroke-miterlimit="10"/>
<path d="M1303.55 4104.92H1291L1297.27 4092.75L1303.55 4104.92Z" fill="#D2D2D2"/>
<path d="M1303.55 4089.23H1291L1297.27 4077.06L1303.55 4089.23Z" fill="#D2D2D2"/>
<path d="M1303.55 4073.55H1291L1297.27 4061.38L1303.55 4073.55Z" fill="#D2D2D2"/>
<path d="M1303.55 4057.86H1291L1297.27 4045.69L1303.55 4057.86Z" fill="#D2D2D2"/>
<path d="M1303.55 4042.17H1291L1297.27 4030L1303.55 4042.17Z" fill="#D2D2D2"/>
<path d="M240.317 3436H218V3457.64H240.317V3436Z" stroke="#5D3C7D" stroke-width="1.22" stroke-miterlimit="10"/>
<path d="M425.766 3981.09L407.691 3968L395 3985.52L413.075 3998.61L425.766 3981.09Z" stroke="#5D3C7D" stroke-width="1.22" stroke-miterlimit="10"/>
<path d="M1319.32 3888H1297V3909.64H1319.32V3888Z" stroke="#D2D2D2" stroke-width="1.22" stroke-miterlimit="10"/>
<path d="M653.705 3630L634.633 3641.59L645.869 3660.08L664.941 3648.49L653.705 3630Z" stroke="#D2D2D2" stroke-width="1.22" stroke-miterlimit="10"/>
<path d="M104.317 3686.6H82V3708.24H104.317V3686.6Z" stroke="#D2D2D2" stroke-width="1.22" stroke-miterlimit="10"/>
<path d="M1341.32 3507H1319V3528.64H1341.32V3507Z" stroke="#D2D2D2" stroke-width="1.22" stroke-miterlimit="10"/>
<path d="M230.58 3801.05C231.447 3801.05 232.151 3800.36 232.151 3799.52C232.151 3798.68 231.447 3798 230.58 3798C229.712 3798 229.009 3798.68 229.009 3799.52C229.009 3800.36 229.712 3801.05 230.58 3801.05Z" fill="#5A189A"/>
<path d="M232.142 3814.98C232.142 3815.82 231.438 3816.5 230.571 3816.5C229.704 3816.5 229 3815.82 229 3814.98C229 3814.14 229.704 3813.46 230.571 3813.46C231.438 3813.46 232.142 3814.14 232.142 3814.98Z" fill="#5A189A"/>
<path d="M230.58 3831.96C231.447 3831.96 232.151 3831.28 232.151 3830.44C232.151 3829.6 231.447 3828.92 230.58 3828.92C229.712 3828.92 229.009 3829.6 229.009 3830.44C229.009 3831.28 229.712 3831.96 230.58 3831.96Z" fill="#5A189A"/>
<path d="M232.142 3845.9C232.142 3846.75 231.438 3847.43 230.571 3847.43C229.704 3847.43 229 3846.75 229 3845.9C229 3845.06 229.704 3844.38 230.571 3844.38C231.438 3844.38 232.142 3845.06 232.142 3845.9Z" fill="#5A189A"/>
<path d="M958.142 3902.52C958.142 3903.36 957.438 3904.05 956.571 3904.05C955.704 3904.05 955 3903.36 955 3902.52C955 3901.68 955.704 3901 956.571 3901C957.438 3901 958.142 3901.68 958.142 3902.52Z" fill="#5A189A"/>
<path d="M958.142 3919.39C958.142 3920.23 957.438 3920.91 956.571 3920.91C955.704 3920.91 955 3920.23 955 3919.39C955 3918.55 955.704 3917.87 956.571 3917.87C957.438 3917.87 958.142 3918.55 958.142 3919.39Z" fill="#5A189A"/>
<path d="M958.142 3936.27C958.142 3937.11 957.438 3937.79 956.571 3937.79C955.704 3937.79 955 3937.11 955 3936.27C955 3935.43 955.704 3934.74 956.571 3934.74C957.438 3934.74 958.142 3935.43 958.142 3936.27Z" fill="#5A189A"/>
<path d="M958.142 3953.13C958.142 3953.97 957.438 3954.66 956.571 3954.66C955.704 3954.66 955 3953.97 955 3953.13C955 3952.29 955.704 3951.61 956.571 3951.61C957.438 3951.61 958.142 3952.29 958.142 3953.13Z" fill="#5A189A"/>
<path d="M971.53 3919.84C971.53 3920.68 970.826 3921.36 969.959 3921.36C969.093 3921.36 968.388 3920.68 968.388 3919.84C968.388 3919 969.093 3918.31 969.959 3918.31C970.826 3918.31 971.53 3919 971.53 3919.84Z" fill="#5A189A"/>
<path d="M969.968 3936.82C970.836 3936.82 971.539 3936.13 971.539 3935.29C971.539 3934.45 970.836 3933.77 969.968 3933.77C969.101 3933.77 968.397 3934.45 968.397 3935.29C968.397 3936.13 969.101 3936.82 969.968 3936.82Z" fill="#5A189A"/>
<path d="M971.53 3950.75C971.53 3951.59 970.826 3952.27 969.959 3952.27C969.093 3952.27 968.388 3951.59 968.388 3950.75C968.388 3949.91 969.093 3949.23 969.959 3949.23C970.826 3949.23 971.53 3949.91 971.53 3950.75Z" fill="#5A189A"/>
<path d="M969.968 3967.74C970.836 3967.74 971.539 3967.06 971.539 3966.22C971.539 3965.38 970.836 3964.69 969.968 3964.69C969.101 3964.69 968.397 3965.38 968.397 3966.22C968.397 3967.06 969.101 3967.74 969.968 3967.74Z" fill="#5A189A"/>
<path d="M801.142 3608.12C801.142 3608.96 800.438 3609.65 799.571 3609.65C798.704 3609.65 798 3608.96 798 3608.12C798 3607.28 798.704 3606.6 799.571 3606.6C800.438 3606.6 801.142 3607.28 801.142 3608.12Z" fill="#5A189A"/>
<path d="M801.142 3624.99C801.142 3625.83 800.438 3626.51 799.571 3626.51C798.704 3626.51 798 3625.83 798 3624.99C798 3624.15 798.704 3623.47 799.571 3623.47C800.438 3623.47 801.142 3624.15 801.142 3624.99Z" fill="#5A189A"/>
<path d="M801.142 3641.87C801.142 3642.71 800.438 3643.39 799.571 3643.39C798.704 3643.39 798 3642.71 798 3641.87C798 3641.03 798.704 3640.34 799.571 3640.34C800.438 3640.34 801.142 3641.03 801.142 3641.87Z" fill="#5A189A"/>
<path d="M801.142 3658.73C801.142 3659.57 800.438 3660.26 799.571 3660.26C798.704 3660.26 798 3659.57 798 3658.73C798 3657.89 798.704 3657.21 799.571 3657.21C800.438 3657.21 801.142 3657.89 801.142 3658.73Z" fill="#5A189A"/>
<path d="M814.53 3625.44C814.53 3626.28 813.826 3626.96 812.959 3626.96C812.093 3626.96 811.388 3626.28 811.388 3625.44C811.388 3624.6 812.093 3623.91 812.959 3623.91C813.826 3623.91 814.53 3624.6 814.53 3625.44Z" fill="#5A189A"/>
<path d="M812.968 3642.42C813.836 3642.42 814.539 3641.74 814.539 3640.89C814.539 3640.05 813.836 3639.37 812.968 3639.37C812.101 3639.37 811.397 3640.05 811.397 3640.89C811.397 3641.74 812.101 3642.42 812.968 3642.42Z" fill="#5A189A"/>
<path d="M814.53 3656.35C814.53 3657.19 813.826 3657.87 812.959 3657.87C812.093 3657.87 811.388 3657.19 811.388 3656.35C811.388 3655.51 812.093 3654.83 812.959 3654.83C813.826 3654.83 814.53 3655.51 814.53 3656.35Z" fill="#5A189A"/>
<path d="M812.968 3673.34C813.836 3673.34 814.539 3672.66 814.539 3671.82C814.539 3670.98 813.836 3670.29 812.968 3670.29C812.101 3670.29 811.397 3670.98 811.397 3671.82C811.397 3672.66 812.101 3673.34 812.968 3673.34Z" fill="#5A189A"/>
<path d="M109 3499V3533.38" stroke="#D2D2D2" stroke-width="0.73" stroke-miterlimit="10"/>
<path d="M99 3499V3533.38" stroke="#D2D2D2" stroke-width="0.73" stroke-miterlimit="10"/>
<path d="M1289 3734V3768.38" stroke="#D2D2D2" stroke-width="0.73" stroke-miterlimit="10"/>
<path d="M1293.6 3734V3768.38" stroke="#D2D2D2" stroke-width="0.73" stroke-miterlimit="10"/>
<path d="M823.246 4067.13C825.28 4058.85 820.004 4050.54 811.462 4048.57C802.92 4046.6 794.347 4051.71 792.314 4059.99C790.281 4068.28 795.557 4076.59 804.098 4078.56C812.64 4080.53 821.213 4075.42 823.246 4067.13Z" stroke="#5A189A" stroke-width="4.89" stroke-miterlimit="10"/>
<path d="M1178.73 4018.7C1184.93 4012.68 1184.93 4002.92 1178.73 3996.9C1172.52 3990.88 1162.45 3990.88 1156.24 3996.9C1150.03 4002.92 1150.03 4012.68 1156.24 4018.7C1162.45 4024.72 1172.52 4024.72 1178.73 4018.7Z" stroke="#5A189A" stroke-width="4.89" stroke-miterlimit="10"/>
<path d="M989.406 3823.32C994.022 3816.08 991.71 3806.58 984.241 3802.1C976.772 3797.63 966.975 3799.87 962.359 3807.11C957.742 3814.35 960.055 3823.85 967.524 3828.33C974.992 3832.8 984.789 3830.56 989.406 3823.32Z" stroke="#5A189A" stroke-width="4.89" stroke-miterlimit="10"/>
<path d="M481.614 3832.13C483.647 3823.85 478.371 3815.54 469.83 3813.57C461.288 3811.6 452.715 3816.71 450.682 3824.99C448.648 3833.28 453.924 3841.59 462.466 3843.56C471.008 3845.53 479.581 3840.42 481.614 3832.13Z" stroke="#5A189A" stroke-width="4.89" stroke-miterlimit="10"/>
<path d="M177.898 4024.83C186.679 4024.83 193.797 4017.93 193.797 4009.41C193.797 4000.9 186.679 3994 177.898 3994C169.118 3994 162 4000.9 162 4009.41C162 4017.93 169.118 4024.83 177.898 4024.83Z" stroke="#5A189A" stroke-width="4.89" stroke-miterlimit="10"/>
<path d="M54.5489 3521.92H42L48.2744 3509.75L54.5489 3521.92Z" fill="#D2D2D2"/>
<path d="M54.5489 3506.23H42L48.2744 3494.06L54.5489 3506.23Z" fill="#D2D2D2"/>
<path d="M54.5489 3490.55H42L48.2744 3478.38L54.5489 3490.55Z" fill="#D2D2D2"/>
<path d="M54.5489 3474.86H42L48.2744 3462.69L54.5489 3474.86Z" fill="#D2D2D2"/>
<path d="M54.5489 3459.17H42L48.2744 3447L54.5489 3459.17Z" fill="#D2D2D2"/>
<path d="M119.549 2529.92H107L113.274 2517.75L119.549 2529.92Z" fill="#D2D2D2"/>
<path d="M119.549 2514.23H107L113.274 2502.06L119.549 2514.23Z" fill="#D2D2D2"/>
<path d="M119.549 2498.55H107L113.274 2486.38L119.549 2498.55Z" fill="#D2D2D2"/>
<path d="M119.549 2482.86H107L113.274 2470.68L119.549 2482.86Z" fill="#D2D2D2"/>
<path d="M119.549 2467.17H107L113.274 2455L119.549 2467.17Z" fill="#D2D2D2"/>
<path d="M62 3285.07L62 2974.04L-11 2908.54" stroke="#D2D2D2" stroke-width="1.9" stroke-miterlimit="10"/>
<path d="M1457.98 1185L1381 1258.08V1373.04L1354 1401.5V1869.5L1457.98 1970.5V1185Z" fill="#5A189A"/>
<path d="M-15 1249.5L42.3122 1195.48L42.3122 841L67 817.5L67 734L-15 656.5L-15 1197.98L-15 1249.5Z" fill="#5A189A"/>
<path d="M1440 3130L1401 3098.5V2792.5L1383.5 2774.5V2636L1440 2581V2636V3078.9V3130Z" fill="#5A189A"/>
<path d="M1389 3123L1419 3146.5V3261V3365" stroke="white" stroke-width="2"/>
<path d="M36 1491.5V1241L67 1209.5V1092" stroke="white" stroke-width="2"/>
<path d="M325.75 1446.84L296.301 1414.7L337.933 1401.77L325.75 1446.84Z" stroke="#5A189A"/>
<path d="M1037.11 1277.8L1003.18 1253.15L1041.41 1237.77L1037.11 1277.8Z" stroke="#5A189A"/>
<path d="M379.646 2058.89L341.729 2076.8L346.607 2035.89L379.646 2058.89Z" stroke="#5A189A"/>
<path d="M1331.63 1691.5L1304.27 1676.63L1331.84 1656.82L1331.63 1691.5Z" stroke="#5A189A"/>
<path d="M-1.5 3467L15.4999 3452.96L15.4998 3279L43.8365 3252.5L43.8364 2996.5L-1.5 2953L-1.5 2990.46L-1.5 3467Z" fill="#5A189A"/>
<path d="M87 1839V2239L23.5 2303.5V2614.5" stroke="white" stroke-width="2"/>
<path d="M1 2288L54.8176 2230.77L54.8176 1831.61L78 1797.4L78 1735L1 1633L1 2233.64L1 2288Z" fill="#5A189A"/>
<path d="M1439.5 1172L1359.5 1237.5V1346L1326 1386V1669.5" stroke="white" stroke-width="2"/>
</g>
<defs>
<clipPath id="clip0_73_280">
<rect width="1440" height="4179" fill="white"/>
</clipPath>
</defs>
</svg>
