<svg width="968" height="121" viewBox="0 0 968 121" fill="none" xmlns="http://www.w3.org/2000/svg">
<path d="M60.4713 40.0227V120.646H40.3197V40.0227H0L20.1516 19.8711H100.775V40.0227H60.4548H60.4713Z" fill="#F9FAFB"/>
<path d="M220.623 40.0227H119.849V19.8711H220.623V40.0227ZM220.623 80.3424H119.849V60.1908H220.623V80.3424ZM220.623 120.662H119.849V100.511H220.623V120.662Z" fill="#F9FAFB"/>
<path d="M291.171 40.0227V120.646H271.019V40.0227H230.699L250.851 19.8711H331.474V40.0227H291.154H291.171Z" fill="#F9FAFB"/>
<path d="M415.56 120.662L379.665 60.1908H419.985C422.819 60.1908 425.205 59.2297 427.144 57.2742C429.083 55.3187 430.061 52.9489 430.061 50.115C430.061 47.2812 429.083 44.8949 427.144 42.9559C425.205 41.017 422.819 40.0393 419.985 40.0393H369.589V120.662H349.438V19.8711H419.985C428.387 19.8711 435.513 22.8043 441.396 28.6874C447.279 34.5705 450.212 41.713 450.212 50.0985C450.212 58.4839 447.279 65.643 441.396 71.5095C435.513 77.376 428.37 80.3259 419.985 80.3259H415.096L440.136 120.646H415.577L415.56 120.662Z" fill="#F9FAFB"/>
<path d="M600.753 50.115V120.662H580.601V19.8711H600.753L661.224 90.4182V19.8711H681.376V120.646H661.224L600.753 50.0985V50.115Z" fill="#F9FAFB"/>
<path d="M735.55 120.662H715.398V19.8711H735.55V120.646V120.662Z" fill="#F9FAFB"/>
<path d="M806.08 100.491H856.475V120.643H806.08C792.11 120.643 780.228 115.737 770.417 105.927C760.606 96.1161 755.701 84.2174 755.701 70.2637C755.701 56.3101 760.606 44.4114 770.417 34.6007C780.228 24.7901 792.126 19.8848 806.08 19.8848H866.551L846.4 40.0364H806.08C797.678 40.0364 790.535 42.9696 784.669 48.8527C778.786 54.7357 775.853 61.8783 775.853 70.2637C775.853 78.6492 778.786 85.8083 784.669 91.6748C790.552 97.5579 797.694 100.491 806.08 100.491Z" fill="#F9FAFB"/>
<path d="M866.866 120.66L917.262 14.8477L967.657 120.66H944.987L917.278 62.7077L889.57 120.66H866.899H866.866Z" fill="#F9FAFB"/>
<path d="M506.093 6.99339C509.358 6.99339 512.407 10.0592 514.976 15.3623C516.219 13.9536 518.042 13.0588 520.08 13.0588C520.312 13.0588 520.544 13.0588 520.759 13.0919C517.511 4.90532 513.385 0 508.894 0C501.287 0 494.725 14.0862 491.676 34.4367C494.476 18.0635 499.895 6.97682 506.11 6.97682L506.093 6.99339Z" fill="#F9FAFB"/>
<path d="M520.063 24.9584C522.882 24.9584 525.167 22.6731 525.167 19.8542C525.167 17.0352 522.882 14.75 520.063 14.75C517.244 14.75 514.959 17.0352 514.959 19.8542C514.959 22.6731 517.244 24.9584 520.063 24.9584Z" fill="#F9FAFB"/>
<path d="M467.298 87.3848C465.575 84.2692 467.166 79.6291 471.275 74.2929C469.154 73.8123 467.431 72.3374 466.569 70.3984C460.238 77.6901 457.521 84.1532 459.824 88.3128C463.503 94.9748 478.998 93.9307 498.304 86.7716C482.611 92.2072 470.298 92.837 467.298 87.3848Z" fill="#F9FAFB"/>
<path d="M472.8 72.7826C475.619 72.7826 477.904 70.4974 477.904 67.6784C477.904 64.8594 475.619 62.5742 472.8 62.5742C469.981 62.5742 467.696 64.8594 467.696 67.6784C467.696 70.4974 469.981 72.7826 472.8 72.7826Z" fill="#F9FAFB"/>
<path d="M565.156 30.2617C561.527 23.6826 546.347 24.6273 527.372 31.5544C527.687 33.3773 527.952 35.2334 528.2 37.1226C544.458 31.3058 557.317 30.5103 560.383 36.0951C563.383 41.5307 556.29 51.6231 543.298 61.9806C559.654 49.4853 568.818 36.9237 565.156 30.2617Z" fill="#F9FAFB"/>
<path d="M522.019 73.7288C523.809 74.3088 525.582 74.8226 527.322 75.3032C527.72 70.4641 527.935 65.3765 527.935 60.1397C527.935 47.081 526.609 34.9834 524.372 25.123C523.195 26.0842 521.704 26.6642 520.063 26.6642C519.649 26.6642 519.251 26.6311 518.854 26.5482C521.174 35.696 522.566 47.3959 522.566 60.1397C522.566 64.8462 522.383 69.3869 522.019 73.7288Z" fill="#F9FAFB"/>
<path d="M521.024 82.5947C518.406 100.708 512.705 113.27 506.093 113.27C499.878 113.27 494.476 102.183 491.659 85.8097C494.708 106.177 501.27 120.246 508.877 120.246C516.484 120.246 523.394 105.398 526.344 84.169C524.587 83.6884 522.814 83.1581 521.024 82.5781V82.5947Z" fill="#F9FAFB"/>
<path d="M540.364 51.5898C554.036 61.0193 561.808 70.598 559.207 76.2324C557.5 79.928 551.617 81.3035 543.264 80.5909C543.331 80.8395 543.38 81.1046 543.414 81.3698C543.646 83.2424 543.082 85.0322 541.988 86.4077C553.705 88.0152 562.123 86.5734 564.377 81.7012C567.576 74.8073 557.566 62.9251 540.381 51.5898H540.364Z" fill="#F9FAFB"/>
<path d="M536.652 87.2865C539.471 87.2865 541.756 85.0013 541.756 82.1823C541.756 79.3633 539.471 77.0781 536.652 77.0781C533.833 77.0781 531.548 79.3633 531.548 82.1823C531.548 85.0013 533.833 87.2865 536.652 87.2865Z" fill="#F9FAFB"/>
<path d="M529.741 77.6714C521.72 75.7159 512.606 72.5009 503.259 68.1756C497.989 65.7395 493.051 63.1212 488.543 60.4199C486.985 61.5965 485.477 62.7731 484.036 63.9663C489.223 67.0984 494.94 70.1311 501.039 72.9649C510.799 77.4891 520.345 80.9195 528.896 83.1236C528.813 82.8087 528.747 82.4607 528.697 82.1293C528.498 80.5052 528.913 78.9475 529.741 77.6714Z" fill="#F9FAFB"/>
<path d="M480.589 55.3C467.497 46.1523 460.089 36.9216 462.625 31.4529C465.193 25.9012 477.341 25.6692 493.117 29.9448C473.678 24.244 458.382 24.2606 455.234 31.0551C452.251 37.4685 460.901 48.2735 476.148 58.863C477.573 57.6698 479.064 56.4766 480.605 55.3H480.589Z" fill="#F9FAFB"/>
<path d="M518.887 34.9336C513.816 37.1211 508.579 39.6898 503.309 42.6064C492.504 48.5558 483.042 55.1183 475.65 61.4986C477.44 62.3272 478.799 63.8849 479.346 65.7907C486.157 59.6259 495.305 53.1463 505.894 47.3129C510.584 44.7277 515.224 42.4573 519.699 40.5018C519.467 38.596 519.185 36.7399 518.887 34.9502V34.9336Z" fill="#F9FAFB"/>
<path d="M509.01 67.1664C513.788 67.1664 517.661 63.2934 517.661 58.5158C517.661 53.7382 513.788 49.8652 509.01 49.8652C504.232 49.8652 500.359 53.7382 500.359 58.5158C500.359 63.2934 504.232 67.1664 509.01 67.1664Z" fill="#F9FAFB"/>
</svg>
