<svg width="85" height="71" viewBox="0 0 85 71" fill="none" xmlns="http://www.w3.org/2000/svg">
<path d="M43.56 14L26.58 56.3H18.42L1.44 14H11.64L22.62 43.58L33.6 14H43.56ZM78.8766 43.58C78.8766 51.92 72.5166 56.6 63.4566 56.6C57.0966 56.6 50.6766 54.38 45.6366 49.88L51.0966 43.34C54.8766 46.46 58.8366 48.44 63.6366 48.44C67.4166 48.44 69.6966 46.94 69.6966 44.48V44.36C69.6966 42.02 68.2566 40.82 61.2366 39.02C52.7766 36.86 47.3166 34.52 47.3166 26.18V26.06C47.3166 18.44 53.4366 13.4 62.0166 13.4C68.1366 13.4 73.3566 15.32 77.6166 18.74L72.8166 25.7C69.0966 23.12 65.4366 21.56 61.8966 21.56C58.3566 21.56 56.4966 23.18 56.4966 25.22V25.34C56.4966 28.1 58.2966 29 65.5566 30.86C74.0766 33.08 78.8766 36.14 78.8766 43.46V43.58Z" fill="white"/>
<mask id="path-2-outside-1_964_354" maskUnits="userSpaceOnUse" x="3" y="17" width="80" height="46" fill="black">
<rect fill="white" x="3" y="17" width="80" height="46"/>
<path d="M46.56 19L29.58 61.3H21.42L4.44 19H14.64L25.62 48.58L36.6 19H46.56ZM81.8766 48.58C81.8766 56.92 75.5166 61.6 66.4566 61.6C60.0966 61.6 53.6766 59.38 48.6366 54.88L54.0966 48.34C57.8766 51.46 61.8366 53.44 66.6366 53.44C70.4166 53.44 72.6966 51.94 72.6966 49.48V49.36C72.6966 47.02 71.2566 45.82 64.2366 44.02C55.7766 41.86 50.3166 39.52 50.3166 31.18V31.06C50.3166 23.44 56.4366 18.4 65.0166 18.4C71.1366 18.4 76.3566 20.32 80.6166 23.74L75.8166 30.7C72.0966 28.12 68.4366 26.56 64.8966 26.56C61.3566 26.56 59.4966 28.18 59.4966 30.22V30.34C59.4966 33.1 61.2966 34 68.5566 35.86C77.0766 38.08 81.8766 41.14 81.8766 48.46V48.58Z"/>
</mask>
<path d="M46.56 19L47.024 19.1863L47.2995 18.5H46.56V19ZM29.58 61.3V61.8H29.9181L30.044 61.4863L29.58 61.3ZM21.42 61.3L20.956 61.4863L21.0819 61.8H21.42V61.3ZM4.44 19V18.5H3.70051L3.97599 19.1863L4.44 19ZM14.64 19L15.1087 18.826L14.9877 18.5H14.64V19ZM25.62 48.58L25.1513 48.754L25.62 50.0168L26.0887 48.754L25.62 48.58ZM36.6 19V18.5H36.2523L36.1313 18.826L36.6 19ZM46.096 18.8137L29.116 61.1137L30.044 61.4863L47.024 19.1863L46.096 18.8137ZM29.58 60.8H21.42V61.8H29.58V60.8ZM21.884 61.1137L4.90401 18.8137L3.97599 19.1863L20.956 61.4863L21.884 61.1137ZM4.44 19.5H14.64V18.5H4.44V19.5ZM14.1713 19.174L25.1513 48.754L26.0887 48.406L15.1087 18.826L14.1713 19.174ZM26.0887 48.754L37.0687 19.174L36.1313 18.826L25.1513 48.406L26.0887 48.754ZM36.6 19.5H46.56V18.5H36.6V19.5ZM48.6366 54.88L48.2527 54.5596L47.9428 54.9308L48.3036 55.253L48.6366 54.88ZM54.0966 48.34L54.4148 47.9544L54.0314 47.6379L53.7127 48.0196L54.0966 48.34ZM64.2366 44.02L64.3608 43.5357L64.3603 43.5355L64.2366 44.02ZM80.6166 23.74L81.0282 24.0239L81.2921 23.6411L80.9296 23.3501L80.6166 23.74ZM75.8166 30.7L75.5316 31.1109L75.9436 31.3966L76.2282 30.9839L75.8166 30.7ZM68.5566 35.86L68.6826 35.3761L68.6807 35.3756L68.5566 35.86ZM81.3766 48.58C81.3766 52.6106 79.846 55.7187 77.2487 57.8295C74.6389 59.9504 70.9062 61.1 66.4566 61.1V62.1C71.0669 62.1 75.0442 60.9096 77.8794 58.6055C80.7271 56.2913 82.3766 52.8894 82.3766 48.58H81.3766ZM66.4566 61.1C60.2114 61.1 53.9121 58.92 48.9696 54.507L48.3036 55.253C53.441 59.84 59.9818 62.1 66.4566 62.1V61.1ZM49.0204 55.2004L54.4804 48.6604L53.7127 48.0196L48.2527 54.5596L49.0204 55.2004ZM53.7783 48.7256C57.6122 51.8901 61.6813 53.94 66.6366 53.94V52.94C61.9918 52.94 58.141 51.0299 54.4148 47.9544L53.7783 48.7256ZM66.6366 53.94C68.5829 53.94 70.2054 53.5553 71.3579 52.8008C72.5316 52.0324 73.1966 50.8902 73.1966 49.48H72.1966C72.1966 50.5298 71.7215 51.3676 70.8102 51.9642C69.8777 52.5747 68.4703 52.94 66.6366 52.94V53.94ZM73.1966 49.48V49.36H72.1966V49.48H73.1966ZM73.1966 49.36C73.1966 48.7234 73.0985 48.1234 72.8053 47.5606C72.5119 46.9973 72.0448 46.513 71.3747 46.0703C70.0585 45.2008 67.8662 44.4345 64.3608 43.5357L64.1124 44.5043C67.6269 45.4055 69.6646 46.1392 70.8235 46.9047C71.3908 47.2795 71.7225 47.6464 71.9184 48.0226C72.1146 48.3991 72.1966 48.8266 72.1966 49.36H73.1966ZM64.3603 43.5355C60.1249 42.4542 56.7423 41.3488 54.4124 39.5239C52.1273 37.734 50.8166 35.2184 50.8166 31.18H49.8166C49.8166 35.4816 51.2359 38.306 53.7957 40.3111C56.3109 42.2812 59.8883 43.4258 64.1129 44.5045L64.3603 43.5355ZM50.8166 31.18V31.06H49.8166V31.18H50.8166ZM50.8166 31.06C50.8166 27.3942 52.284 24.3694 54.7729 22.2534C57.2687 20.1317 60.8219 18.9 65.0166 18.9V17.9C60.6312 17.9 56.8344 19.1883 54.1252 21.4916C51.4091 23.8006 49.8166 27.1057 49.8166 31.06H50.8166ZM65.0166 18.9C71.0247 18.9 76.1338 20.7824 80.3035 24.1299L80.9296 23.3501C76.5793 19.8576 71.2485 17.9 65.0166 17.9V18.9ZM80.205 23.4561L75.405 30.4161L76.2282 30.9839L81.0282 24.0239L80.205 23.4561ZM76.1015 30.2891C72.3421 27.6818 68.5815 26.06 64.8966 26.06V27.06C68.2916 27.06 71.851 28.5582 75.5316 31.1109L76.1015 30.2891ZM64.8966 26.06C63.0567 26.06 61.5929 26.4803 60.575 27.2206C59.545 27.9697 58.9966 29.0317 58.9966 30.22H59.9966C59.9966 29.3683 60.3781 28.6003 61.1631 28.0294C61.9602 27.4497 63.1965 27.06 64.8966 27.06V26.06ZM58.9966 30.22V30.34H59.9966V30.22H58.9966ZM58.9966 30.34C58.9966 31.0841 59.1179 31.7505 59.4555 32.3505C59.7931 32.9505 60.3201 33.4367 61.0496 33.8679C62.4801 34.7136 64.8197 35.4188 68.4325 36.3444L68.6807 35.3756C65.0334 34.4412 62.843 33.7664 61.5585 33.0071C60.9305 32.6358 60.5538 32.2633 60.327 31.8601C60.1002 31.457 59.9966 30.9759 59.9966 30.34H58.9966ZM68.4305 36.3438C72.6742 37.4496 75.9103 38.7466 78.0846 40.6258C80.2281 42.4782 81.3766 44.9291 81.3766 48.46H82.3766C82.3766 44.6709 81.1251 41.9318 78.7385 39.8692C76.3829 37.8334 72.9589 36.4904 68.6826 35.3762L68.4305 36.3438ZM81.3766 48.46V48.58H82.3766V48.46H81.3766Z" fill="white" mask="url(#path-2-outside-1_964_354)"/>
</svg>
