<svg width="458" height="23" viewBox="0 0 458 23" fill="none" xmlns="http://www.w3.org/2000/svg">
<path d="M2 2L11.6419 11.6419L2 21.2838" stroke="#F9FAFB" stroke-width="3"/>
<path d="M26.6418 2L36.2838 11.6419L26.6418 21.2838" stroke="#F9FAFB" stroke-width="3"/>
<path d="M51.2837 2L60.9256 11.6419L51.2837 21.2838" stroke="#F9FAFB" stroke-width="3"/>
<path d="M75.9255 2L85.5675 11.6419L75.9255 21.2838" stroke="#F9FAFB" stroke-width="3"/>
<path d="M100.567 2L110.209 11.6419L100.567 21.2838" stroke="#F9FAFB" stroke-width="3"/>
<path d="M125.209 2L134.851 11.6419L125.209 21.2838" stroke="#F9FAFB" stroke-width="3"/>
<path d="M149.851 2L159.493 11.6419L149.851 21.2838" stroke="#F9FAFB" stroke-width="3"/>
<path d="M174.493 2L184.135 11.6419L174.493 21.2838" stroke="#F9FAFB" stroke-width="3"/>
<path d="M199.135 2L208.777 11.6419L199.135 21.2838" stroke="#F9FAFB" stroke-width="3"/>
<path d="M223.777 2L233.419 11.6419L223.777 21.2838" stroke="#F9FAFB" stroke-width="3"/>
<path d="M248.418 2L258.06 11.6419L248.418 21.2838" stroke="#F9FAFB" stroke-width="3"/>
<path d="M273.06 2L282.702 11.6419L273.06 21.2838" stroke="#F9FAFB" stroke-width="3"/>
<path d="M297.702 2L307.344 11.6419L297.702 21.2838" stroke="#F9FAFB" stroke-width="3"/>
<path d="M322.344 2L331.986 11.6419L322.344 21.2838" stroke="#F9FAFB" stroke-width="3"/>
<path d="M346.986 2L356.628 11.6419L346.986 21.2838" stroke="#F9FAFB" stroke-width="3"/>
<path d="M371.628 2L381.27 11.6419L371.628 21.2838" stroke="#F9FAFB" stroke-width="3"/>
<path d="M396.27 2L405.911 11.6419L396.27 21.2838" stroke="#F9FAFB" stroke-width="3"/>
<path d="M420.911 2L430.553 11.6419L420.911 21.2838" stroke="#F9FAFB" stroke-width="3"/>
<path d="M446 2L455.642 11.6419L446 21.2838" stroke="#F9FAFB" stroke-width="3"/>
</svg>
